<svg xmlns="http://www.w3.org/2000/svg" xmlns:xlink="http://www.w3.org/1999/xlink" width="1924" height="1080" viewBox="0 0 1924 1080">
  <defs>
    <clipPath id="clip-Web_1920_1">
      <rect width="1924" height="1080"/>
    </clipPath>
  </defs>
  <g id="Web_1920_1" data-name="Web 1920 – 1" clip-path="url(#clip-Web_1920_1)">
    <rect width="1924" height="1080" fill="#a0a09f"/>
    <g id="Rainbow-Vortex" transform="translate(887.276 -329.325) rotate(31)">
      <rect id="Rectangle_1" data-name="Rectangle 1" width="1600" height="800" transform="translate(-5.089 -77.393)" fill="#77ff7e"/>
      <g id="Group_1" data-name="Group 1" transform="translate(-1800 -1827)">
        <ellipse id="Ellipse_1" data-name="Ellipse 1" cx="1797.455" cy="1753.404" rx="1797.455" ry="1753.404" fill="#77ff7e" stroke="rgba(167,119,255,0.05)" stroke-width="66.7"/>
        <ellipse id="Ellipse_2" data-name="Ellipse 2" cx="1697.455" cy="1653.404" rx="1697.455" ry="1653.404" transform="translate(100 100)" fill="#47f288" stroke="rgba(167,119,255,0.05)" stroke-width="66.7"/>
        <ellipse id="Ellipse_3" data-name="Ellipse 3" cx="1597.455" cy="1553.404" rx="1597.455" ry="1553.404" transform="translate(200 200)" fill="#00e492" stroke="rgba(167,119,255,0.05)" stroke-width="66.7"/>
        <ellipse id="Ellipse_4" data-name="Ellipse 4" cx="1497.455" cy="1453.404" rx="1497.455" ry="1453.404" transform="translate(300 300)" fill="#00d699" stroke="rgba(167,119,255,0.05)" stroke-width="66.7"/>
        <ellipse id="Ellipse_5" data-name="Ellipse 5" cx="1397.455" cy="1353.404" rx="1397.455" ry="1353.404" transform="translate(400 400)" fill="#00c79f" stroke="rgba(167,119,255,0.05)" stroke-width="66.7"/>
        <ellipse id="Ellipse_6" data-name="Ellipse 6" cx="1297.455" cy="1253.404" rx="1297.455" ry="1253.404" transform="translate(500 500)" fill="#00b8a2" stroke="rgba(167,119,255,0.05)" stroke-width="66.7"/>
        <ellipse id="Ellipse_7" data-name="Ellipse 7" cx="1197.455" cy="1153.404" rx="1197.455" ry="1153.404" transform="translate(600 600)" fill="#00a9a3" stroke="rgba(167,119,255,0.05)" stroke-width="66.7"/>
        <ellipse id="Ellipse_8" data-name="Ellipse 8" cx="1097.455" cy="1053.404" rx="1097.455" ry="1053.404" transform="translate(700 700)" fill="#009aa2" stroke="rgba(167,119,255,0.05)" stroke-width="66.7"/>
        <ellipse id="Ellipse_9" data-name="Ellipse 9" cx="997.455" cy="953.404" rx="997.455" ry="953.404" transform="translate(800 800)" fill="#008b9e" stroke="rgba(167,119,255,0.05)" stroke-width="66.7"/>
        <ellipse id="Ellipse_10" data-name="Ellipse 10" cx="900" cy="881.904" rx="900" ry="881.904" transform="translate(897.455 871)" fill="#007c97" stroke="rgba(167,119,255,0.05)" stroke-width="66.7"/>
        <circle id="Ellipse_11" data-name="Ellipse 11" cx="800" cy="800" r="800" transform="translate(997.455 952.913)" fill="#006d8e" stroke="rgba(167,119,255,0.05)" stroke-width="66.7"/>
        <circle id="Ellipse_12" data-name="Ellipse 12" cx="700" cy="700" r="700" transform="translate(1097.455 1052.912)" fill="#005e82" stroke="rgba(167,119,255,0.05)" stroke-width="66.7"/>
        <circle id="Ellipse_13" data-name="Ellipse 13" cx="600" cy="600" r="600" transform="translate(1197.455 1152.912)" fill="#005075" stroke="rgba(167,119,255,0.05)" stroke-width="66.7"/>
        <circle id="Ellipse_14" data-name="Ellipse 14" cx="500" cy="500" r="500" transform="translate(1297.455 1252.911)" fill="#004266" stroke="rgba(167,119,255,0.05)" stroke-width="66.7"/>
        <circle id="Ellipse_15" data-name="Ellipse 15" cx="400" cy="400" r="400" transform="translate(1397.455 1352.911)" fill="#003556" stroke="rgba(167,119,255,0.05)" stroke-width="66.7"/>
        <circle id="Ellipse_16" data-name="Ellipse 16" cx="300" cy="300" r="300" transform="translate(1497.455 1452.91)" fill="#002845" stroke="rgba(167,119,255,0.05)" stroke-width="66.7"/>
        <circle id="Ellipse_17" data-name="Ellipse 17" cx="200" cy="200" r="200" transform="translate(1597.455 1552.91)" fill="#051c34" stroke="rgba(167,119,255,0.05)" stroke-width="66.7"/>
        <circle id="Ellipse_18" data-name="Ellipse 18" cx="100" cy="100" r="100" transform="translate(1697.455 1652.91)" fill="#081024" stroke="rgba(167,119,255,0.05)" stroke-width="66.7"/>
      </g>
    </g>
  </g>
</svg>
